<?xml version="1.0" encoding="utf-8"?>
<!-- Svg Vector Icons : http://www.onlinewebfonts.com/icon -->
<!DOCTYPE svg PUBLIC "-//W3C//DTD SVG 1.1//EN" "http://www.w3.org/Graphics/SVG/1.1/DTD/svg11.dtd">
<svg version="1.1" xmlns="http://www.w3.org/2000/svg" xmlns:xlink="http://www.w3.org/1999/xlink" x="0px" y="0px" viewBox="0 0 256 256" enable-background="new 0 0 256 256" xml:space="preserve">
<metadata> Svg Vector Icons : http://www.onlinewebfonts.com/icon </metadata>
<g><g><path fill="#000000" d="M236.7,82c-5.9-14.1-14.4-26.7-25.3-37.5c-10.8-10.8-23.5-19.4-37.5-25.3c-14.6-6.1-30-9.3-45.9-9.3S96.6,13,82.1,19.2C68,25.1,55.4,33.7,44.6,44.5C33.7,55.3,25.2,68,19.3,82C13.1,96.6,10,112,10,128s3.1,31.4,9.3,46c5.9,14.1,14.4,26.7,25.3,37.5c10.8,10.8,23.5,19.4,37.5,25.3c14.5,6.2,30,9.3,45.9,9.3c15.9,0,31.4-3.1,45.9-9.3c14.1-5.9,26.7-14.5,37.5-25.3c10.8-10.8,19.3-23.5,25.3-37.5c6.1-14.6,9.3-30,9.3-46S242.9,96.6,236.7,82z M197.5,197.6c-0.7,0.7-1.4,1.4-2.2,2.1c-7.9-15.1-33.2-41.8-67.6-41.8c-35.8,0-60.2,25.8-67.5,41.5c-0.6-0.6-1.2-1.2-1.8-1.8C39.9,179,29.7,154.3,29.7,128c0-26.3,10.2-51,28.8-69.6C77,39.8,101.7,29.5,128,29.5c26.3,0,51,10.2,69.5,28.8c18.6,18.6,28.8,43.3,28.8,69.6C226.3,154.3,216.1,179,197.5,197.6z"/><path fill="#000000" d="M128.1,73.2c-20,0-38.5,17.2-38.5,38.4c0,21.2,18.6,38.4,38.5,38.4c20,0,37.7-17.2,37.7-38.4C165.9,90.3,148.1,73.2,128.1,73.2z"/></g></g>
</svg>